HIERARCHY
ROOT Hips
{
	OFFSET -0.001795 -0.223333 0.028219
	CHANNELS 6 Xposition Yposition Zposition Zrotation Yrotation Xrotation 
	JOINT LeftUpLeg
	{
		OFFSET 0.069520 -0.091406 -0.006815
		CHANNELS 3 Zrotation Yrotation Xrotation
		JOINT LeftLeg
		{
			OFFSET 0.034277 -0.375199 -0.004496
			CHANNELS 3 Zrotation Yrotation Xrotation
			JOINT LeftFoot
			{
				OFFSET -0.013596 -0.397961 -0.043693
				CHANNELS 3 Zrotation Yrotation Xrotation
				JOINT LeftToe
				{
					OFFSET 0.026358 -0.055791 0.119288
					CHANNELS 3 Zrotation Yrotation Xrotation
					End Site
					{
						OFFSET 0.000000 0.000000 0.000000
					}
				}
			}
		}
	}
	JOINT RightUpLeg
	{
		OFFSET -0.067670 -0.090522 -0.004320
		CHANNELS 3 Zrotation Yrotation Xrotation
		JOINT RightLeg
		{
			OFFSET -0.038290 -0.382569 -0.008850
			CHANNELS 3 Zrotation Yrotation Xrotation
			JOINT RightFoot
			{
				OFFSET 0.015774 -0.398415 -0.042312
				CHANNELS 3 Zrotation Yrotation Xrotation
				JOINT RightToe
				{
					OFFSET -0.025372 -0.048144 0.123348
					CHANNELS 3 Zrotation Yrotation Xrotation
					End Site
					{
						OFFSET 0.000000 0.000000 0.000000
					}
				}
			}
		}
	}
	JOINT Spine
	{
		OFFSET -0.002533 0.108963 -0.026696
		CHANNELS 3 Zrotation Yrotation Xrotation
		JOINT Spine1
		{
			OFFSET 0.005487 0.135180 0.001092
			CHANNELS 3 Zrotation Yrotation Xrotation
			JOINT Spine2
			{
				OFFSET 0.001457 0.052922 0.025425
				CHANNELS 3 Zrotation Yrotation Xrotation
				JOINT Neck
				{
					OFFSET -0.002778 0.213870 -0.042857
					CHANNELS 3 Zrotation Yrotation Xrotation
					JOINT Head
					{
						OFFSET 0.005152 0.064970 0.051349
						CHANNELS 3 Zrotation Yrotation Xrotation
						End Site
						{
							OFFSET 0.000000 0.000000 0.000000
						}
					}
				}
				JOINT LeftShoulder
				{
					OFFSET 0.078845 0.121749 -0.034090
					CHANNELS 3 Zrotation Yrotation Xrotation
					JOINT LeftArm
					{
						OFFSET 0.090977 0.030469 -0.008868
						CHANNELS 3 Zrotation Yrotation Xrotation
						JOINT LeftForeArm
						{
							OFFSET 0.259612 -0.012772 -0.027456
							CHANNELS 3 Zrotation Yrotation Xrotation
							JOINT LeftHand
							{
								OFFSET 0.249234 0.008986 -0.001171
								CHANNELS 3 Zrotation Yrotation Xrotation
								End Site
								{
									OFFSET 0.000000 0.000000 0.000000
								}
							}
						}
					}
				}
				JOINT RightShoulder
				{
					OFFSET -0.081759 0.118833 -0.038615
					CHANNELS 3 Zrotation Yrotation Xrotation
					JOINT RightArm
					{
						OFFSET -0.096012 0.032551 -0.009143
						CHANNELS 3 Zrotation Yrotation Xrotation
						JOINT RightForeArm
						{
							OFFSET -0.253742 -0.013329 -0.021401
							CHANNELS 3 Zrotation Yrotation Xrotation
							JOINT RightHand
							{
								OFFSET -0.255298 0.007772 -0.005559
								CHANNELS 3 Zrotation Yrotation Xrotation
								End Site
								{
									OFFSET 0.000000 0.000000 0.000000
								}
							}
						}
					}
				}
			}
		}
	}
}
MOTION
Frames: 12
Frame Time: 0.050000
0.000000 0.942559 0.000000 -0.196019 -2.858452 7.948445 5.467038 -0.331932 -4.250190 0.559158 0.224654 -7.159995 1.563295 6.540832 10.921410 0.000000 0.000000 0.000000 -3.074168 0.548093 -5.454722 -2.337136 -0.065197 -4.924193 -0.712339 -6.050115 10.012891 0.000000 0.000000 0.000000 4.850951 0.343347 -5.986168 -2.269129 1.049182 -3.649186 -3.606006 3.982776 3.007978 4.770868 -2.374076 -8.957063 0.000000 0.000000 0.000000 -15.403269 1.976841 -3.088726 -55.361285 -7.608492 -2.858300 -7.366721 -13.732978 1.304673 0.000000 0.000000 0.000000 12.555741 -8.113403 -4.554037 63.939887 4.390188 -3.330036 7.659137 17.143236 1.648758 0.000000 0.000000 0.000000 
0.000198 0.942065 0.000666 -0.322432 -3.810681 8.708054 5.341647 -0.321050 -3.946439 0.877702 0.265531 -8.336389 1.944899 7.063374 10.876607 0.000000 0.000000 0.000000 -2.925323 0.655322 -6.743809 -2.777462 -0.008454 -4.319420 -0.081726 -5.141075 10.597006 0.000000 0.000000 0.000000 5.974163 0.388100 -6.297202 -3.062373 1.373568 -4.129894 -4.326679 4.786926 2.269925 4.654739 -2.285899 -8.750896 0.000000 0.000000 0.000000 -16.489316 2.753173 -3.758781 -54.422412 -7.451897 -2.774057 -7.752642 -13.185988 1.281893 0.000000 0.000000 0.000000 12.381583 -9.237622 -5.021545 64.935546 3.218277 -3.880178 8.348484 17.484980 1.787383 0.000000 0.000000 0.000000 
0.000347 0.941879 0.000923 0.087938 -3.353274 8.378086 4.935735 -0.335267 -4.156810 0.931803 0.197967 -6.958363 1.548877 6.184149 9.807327 0.000000 0.000000 0.000000 -3.190345 0.645636 -6.701116 -2.969164 0.022195 -4.054127 -0.784525 -6.355513 10.294551 0.000000 0.000000 0.000000 5.801469 0.342373 -5.843483 -2.768724 1.243676 -5.027765 -5.208916 4.541169 2.386161 4.497808 -2.235676 -8.305391 0.000000 0.000000 0.000000 -15.973046 2.035190 -3.346078 -54.496553 -6.991767 -3.015375 -7.398200 -12.731775 1.197513 0.000000 0.000000 0.000000 13.345618 -8.490406 -4.774661 63.991496 3.102548 -3.945650 9.018037 17.937488 1.944098 0.000000 0.000000 0.000000 
0.000447 0.941687 0.001148 0.211554 -3.282945 8.596143 5.296153 -0.338068 -4.233560 0.339768 0.252142 -7.544676 1.277898 5.867518 10.365462 0.000000 0.000000 0.000000 -3.251641 0.674341 -7.074022 -3.181595 0.013630 -4.385419 -0.827288 -6.744638 11.234649 0.000000 0.000000 0.000000 5.851006 0.321280 -5.665820 -3.158734 1.407427 -4.969777 -5.123585 4.043108 1.096396 4.219416 -2.175692 -7.445411 0.000000 0.000000 0.000000 -15.761709 2.735741 -3.599272 -54.935004 -7.556727 -2.663852 -6.457138 -11.754902 1.012407 0.000000 0.000000 0.000000 12.400897 -8.762227 -4.844816 63.955346 2.746870 -3.997484 10.664917 18.374631 2.211896 0.000000 0.000000 0.000000 
0.000508 0.941808 0.001286 0.470130 -2.904144 8.583854 4.695546 -0.355132 -4.369084 0.634064 0.237225 -7.523617 1.076230 5.602870 10.497104 0.000000 0.000000 0.000000 -3.424136 0.670559 -7.075894 -3.740707 0.035970 -4.564119 -0.786987 -6.620883 11.245632 0.000000 0.000000 0.000000 5.469702 0.323914 -5.784371 -2.799912 1.262798 -4.889950 -5.372990 3.746893 1.103420 3.858362 -1.803786 -8.310066 0.000000 0.000000 0.000000 -15.894360 2.504337 -3.507023 -54.756472 -7.835223 -2.522196 -6.656896 -11.400209 1.001759 0.000000 0.000000 0.000000 12.081721 -8.657730 -4.750200 63.981706 2.921336 -3.896411 11.012276 18.379781 2.262513 0.000000 0.000000 0.000000 
0.000531 0.941952 0.001448 0.609337 -2.963655 8.765396 4.673792 -0.364944 -4.532769 0.478095 0.242027 -7.466733 1.261211 5.898468 10.455256 0.000000 0.000000 0.000000 -3.423677 0.677536 -7.150368 -4.038487 0.025084 -4.945416 -0.652367 -6.547628 11.783760 0.000000 0.000000 0.000000 5.290179 0.330995 -5.916639 -2.818969 1.266792 -5.200886 -5.404231 3.836215 1.067230 3.808497 -1.829441 -7.854640 0.000000 0.000000 0.000000 -15.815518 2.734254 -3.617483 -54.908277 -8.030076 -2.438721 -6.382096 -11.165337 0.953992 0.000000 0.000000 0.000000 11.632652 -8.454424 -4.581523 64.358463 2.909494 -3.897875 10.991242 18.522061 2.280735 0.000000 0.000000 0.000000 
0.000472 0.941999 0.001551 0.729395 -2.643570 8.811665 4.492108 -0.377026 -4.657228 0.498848 0.237373 -7.390750 1.242261 5.993428 10.802969 0.000000 0.000000 0.000000 -3.372289 0.666217 -7.007038 -4.329361 0.015074 -5.308632 -0.644084 -6.505173 11.839815 0.000000 0.000000 0.000000 5.135932 0.338325 -6.067687 -2.871228 1.293563 -5.049318 -5.483194 3.585116 0.970925 3.946986 -1.858353 -8.331317 0.000000 0.000000 0.000000 -15.655351 2.707312 -3.567982 -54.895882 -7.814726 -2.530489 -6.476729 -11.399062 0.983459 0.000000 0.000000 0.000000 11.649791 -8.234705 -4.489217 64.323834 2.877121 -3.909232 10.755887 18.480769 2.236842 0.000000 0.000000 0.000000 
0.000432 0.941984 0.001577 0.766598 -2.368563 8.834962 4.318703 -0.396289 -4.939490 0.712694 0.210947 -7.015741 1.207654 5.902395 10.562344 0.000000 0.000000 0.000000 -3.340152 0.666130 -7.020940 -4.413189 0.022957 -5.280124 -0.753555 -6.598795 11.597450 0.000000 0.000000 0.000000 4.958817 0.326410 -5.997614 -2.807342 1.270068 -5.099025 -5.648995 3.770318 0.922567 4.038941 -1.962954 -7.891946 0.000000 0.000000 0.000000 -15.736848 2.560900 -3.582558 -54.452516 -7.796368 -2.506439 -6.659646 -11.718124 1.023578 0.000000 0.000000 0.000000 11.853091 -8.253565 -4.482076 64.281570 2.963200 -3.826282 10.519058 18.175948 2.172679 0.000000 0.000000 0.000000 
0.000373 0.941944 0.001535 0.809823 -2.068638 8.751339 4.293054 -0.404726 -5.062636 0.620540 0.202509 -6.718093 1.220296 5.830137 10.094212 0.000000 0.000000 0.000000 -3.313789 0.653255 -6.871646 -4.470024 0.006667 -5.553886 -0.777170 -6.576948 11.515171 0.000000 0.000000 0.000000 4.778252 0.316104 -5.924259 -2.877967 1.304018 -4.986229 -5.481753 3.595204 0.853723 3.911364 -1.876491 -7.893913 0.000000 0.000000 0.000000 -15.333638 2.552224 -3.496714 -54.527221 -7.915875 -2.461361 -6.874080 -11.636959 1.038145 0.000000 0.000000 0.000000 11.855945 -7.878652 -4.312833 64.105830 3.008489 -3.793954 10.172034 17.882552 2.079686 0.000000 0.000000 0.000000 
0.000326 0.941789 0.001474 0.863263 -2.024258 8.619498 4.244312 -0.407577 -5.121371 0.579176 0.194505 -6.477054 1.274919 5.895488 9.970079 0.000000 0.000000 0.000000 -3.386053 0.632286 -6.607072 -4.393924 -0.027886 -5.962855 -0.797710 -6.696177 11.793842 0.000000 0.000000 0.000000 4.671510 0.316399 -5.927261 -2.877081 1.305731 -4.853242 -5.508897 3.809444 0.947017 3.896437 -1.831665 -8.049075 0.000000 0.000000 0.000000 -15.302238 2.298804 -3.412349 -54.138409 -8.216532 -2.313216 -7.199475 -11.490327 1.053401 0.000000 0.000000 0.000000 12.089479 -7.740953 -4.246424 63.804534 3.328520 -3.605566 9.903564 17.439854 1.991443 0.000000 0.000000 0.000000 
0.000310 0.941698 0.001396 0.835516 -2.196062 8.559644 4.267791 -0.408952 -5.191870 0.698144 0.181257 -6.311562 1.285246 5.852174 9.809705 0.000000 0.000000 0.000000 -3.359720 0.623545 -6.475100 -4.242130 -0.052025 -6.178717 -0.842083 -6.829125 11.877498 0.000000 0.000000 0.000000 4.652188 0.309731 -5.826285 -2.863556 1.299163 -4.763989 -5.497584 4.012090 1.014627 3.898932 -1.868286 -7.774575 0.000000 0.000000 0.000000 -15.284453 1.940589 -3.256176 -53.981231 -8.393425 -2.229790 -7.527809 -11.617746 1.096129 0.000000 0.000000 0.000000 12.192193 -7.548266 -4.153397 63.748091 3.611917 -3.454024 9.725889 17.372950 1.961956 0.000000 0.000000 0.000000 
0.000348 0.941525 0.001327 0.873877 -2.001986 8.543959 4.380924 -0.411405 -5.250958 0.663076 0.183369 -6.318628 1.177309 5.698214 9.852983 0.000000 0.000000 0.000000 -3.277563 0.608720 -6.279694 -4.230597 -0.065232 -6.362034 -1.061663 -7.229383 11.911029 0.000000 0.000000 0.000000 4.590280 0.312702 -5.885165 -2.778828 1.268097 -4.457276 -5.466079 3.776784 0.872996 3.649662 -1.812077 -7.001984 0.000000 0.000000 0.000000 -15.255230 1.740200 -3.135148 -54.071722 -8.591371 -2.131246 -7.981176 -11.584988 1.138799 0.000000 0.000000 0.000000 11.970993 -7.269766 -4.012324 63.908534 3.678891 -3.412498 9.854991 17.650820 2.010317 0.000000 0.000000 0.000000 
